<?xml version="1.0" encoding="UTF-8"?>
<!DOCTYPE svg PUBLIC "-//W3C//DTD SVG 1.1//EN" "http://www.w3.org/Graphics/SVG/1.1/DTD/svg11.dtd">
<!-- Creator: CorelDRAW 2018 -->
<svg xmlns="http://www.w3.org/2000/svg" xml:space="preserve" width="143.813mm" height="48.5008mm" version="1.1" style="shape-rendering:geometricPrecision; text-rendering:geometricPrecision; image-rendering:optimizeQuality; fill-rule:evenodd; clip-rule:evenodd"
viewBox="0 0 1600.56 539.79"
 xmlns:xlink="http://www.w3.org/1999/xlink">
 <defs>
  <style type="text/css">
   <![CDATA[
    .fil0 {fill:#AFD143}
    .fil1 {fill:#282829}
   ]]>
  </style>
 </defs>
 <g id="Capa_x0020_1">
  <metadata id="CorelCorpID_0Corel-Layer"/>
  <path class="fil0" d="M897 452.82l0 86.97 -32.35 -22.67 0 -191.45 36.61 0c17.93,0 31.5,1.27 40.66,3.75 9.25,2.51 17.35,7.21 24.39,14.16 12.31,11.99 18.45,27.18 18.45,45.47 0,19.59 -6.55,35.12 -19.69,46.6 -13.13,11.47 -30.84,17.17 -53.13,17.17l-14.94 0zm0 -29.94l12.01 0c29.71,0 44.55,-11.4 44.55,-34.24 0,-22.09 -15.31,-33.14 -45.88,-33.14l-10.68 0 0 67.38z"/>
  <path class="fil0" d="M483.3 509.43l0 -183.75 -32.34 0 0 191.45c10.95,7.63 21.77,15.27 32.34,22.65l62.97 0 0 -30.34 -62.97 0z"/>
  <path class="fil0" d="M1034.28 509.43l0 -183.75 -32.3 0 0 191.45c10.86,7.63 21.68,15.27 32.3,22.65l62.93 0 0 -30.34 -62.93 0z"/>
  <polygon class="fil0" points="1373.13,539.77 1373.13,356.06 1422.19,356.06 1422.19,325.68 1291.63,325.68 1291.63,356.06 1340.83,356.06 1340.86,517.12 "/>
  <path class="fil0" d="M662.37 312.67l-95.39 208.74c8.82,6.19 17.61,12.33 26.19,18.38l22.02 -51.89 91.48 0 22.39 51.89 35.3 0 -101.99 -227.12zm-33.73 144.89l33.16 -72.62 31.71 72.62 -64.87 0z"/>
  <path class="fil0" d="M1211.74 312.67l-95.38 208.74c8.82,6.19 17.6,12.33 26.13,18.38l22.06 -51.89 91.5 0 22.38 51.89 35.28 0 -101.98 -227.12zm-33.75 144.89l33.21 -72.62 31.69 72.62 -64.89 0z"/>
  <path class="fil0" d="M1497.51 312.67l-95.41 208.74c8.86,6.19 17.6,12.33 26.19,18.38l22.02 -51.89 91.45 0 22.47 51.89 35.31 0 -102.04 -227.12zm-33.77 144.89l33.2 -72.62 31.67 72.62 -64.87 0z"/>
  <path class="fil1" d="M535.24 162.32c16.93,-3.59 30.62,-11.93 40.94,-24.93 10.36,-12.99 15.52,-28.48 15.52,-46.57 0,-23.11 -8.27,-41.72 -24.74,-55.8 -14.97,-12.65 -39.33,-18.98 -72.99,-18.98l-45.11 0 0 227.95c13.02,9.14 25.92,18.16 38.51,27.02l0 -104.39 6.92 0 72.81 104.39 47.09 0 -78.96 -108.69zm-47.87 -29.22l0 -80.93 13.68 0c35.46,0 53.15,13.06 53.15,39.14 0,27.87 -18.2,41.79 -54.65,41.79l-12.18 0z"/>
  <path class="fil1" d="M641.29 16.04l0 227.95c13.01,9.14 25.91,18.16 38.46,27.02l0 -254.96 -38.46 0z"/>
  <path class="fil1" d="M871.39 16.04l0 227.95c13,9.14 25.88,18.16 38.42,27.02l0 -254.96 -38.42 0z"/>
  <path class="fil1" d="M759.89 234.82l0 -218.78 -38.44 0 0 227.95c13,9.14 25.89,18.16 38.44,27.02l74.98 0 0 -36.19 -74.98 0z"/>
  <path class="fil1" d="M350.9 47.26c23.77,0 46.75,9.28 69.02,27.88l0 -45.5c-21.35,-12.37 -43.5,-18.55 -66.39,-18.55 -41.95,0 -76.13,15.59 -102.57,46.71 -21.46,25.45 -32.2,54.41 -32.2,86.88 0,23.24 5.35,44.29 15.92,63.19 31.78,22.28 63.39,44.46 94.26,66.15 6.99,1.03 14.18,1.6 21.62,1.6 24.21,0 47.33,-6.23 69.35,-18.74l0 -46.49c-6.29,5.28 -12.25,9.8 -17.91,13.52 -5.7,3.76 -11.17,6.75 -16.42,8.91 -9.5,4.42 -20.99,6.62 -34.51,6.62 -26.23,0 -48.36,-9.18 -66.42,-27.55 -18.02,-18.4 -27.06,-40.95 -27.06,-67.71 0,-27.11 9.04,-49.97 27.06,-68.72 17.97,-18.82 40.03,-28.21 66.24,-28.21z"/>
  <path class="fil1" d="M1070.89 47.26c23.78,0 46.82,9.28 69.03,27.88l0 -45.5c-21.37,-12.37 -43.49,-18.55 -66.35,-18.55 -41.97,0 -76.15,15.59 -102.58,46.71 -21.49,25.45 -32.2,54.41 -32.2,86.88 0,23.24 5.3,44.29 15.9,63.19 31.78,22.28 63.4,44.46 94.29,66.15 6.93,1.03 14.15,1.6 21.56,1.6 24.24,0 47.36,-6.23 69.37,-18.74l0 -46.49c-6.22,5.28 -12.24,9.8 -17.86,13.52 -5.74,3.76 -11.17,6.75 -16.48,8.91 -9.49,4.42 -20.99,6.62 -34.52,6.62 -26.17,0 -48.33,-9.18 -66.38,-27.55 -18.05,-18.4 -27.1,-40.95 -27.1,-67.71 0,-27.11 9.04,-49.97 27.1,-68.72 17.96,-18.82 40.02,-28.21 66.2,-28.21z"/>
  <path class="fil1" d="M1381.93 50.22c-25.99,-25.98 -57.15,-38.98 -93.48,-38.98 -36.77,0 -68.24,12.9 -94.46,38.63 -26.3,25.78 -39.46,56.6 -39.46,92.48 0,24.96 5.41,46.98 16.19,66.09 31.33,22 62.52,43.86 93,65.25 7.4,1.26 14.93,1.93 22.77,1.93 37.17,0 68.94,-12.83 95.25,-38.47 26.18,-25.55 39.3,-56.65 39.3,-93.31 0,-36.42 -13.03,-67.63 -39.11,-93.62zm-27.29 161.51c-18.38,18.5 -40.95,27.73 -67.71,27.73 -24.67,0 -46.37,-9.06 -65.21,-27.23 -18.92,-18.15 -28.4,-41.28 -28.4,-69.46 0,-26.83 9.18,-49.38 27.41,-67.63 18.28,-18.48 40.69,-27.71 67.23,-27.71 26.64,0 48.98,9.23 67.02,27.71 18.19,18.34 27.25,41.14 27.25,68.33 0,26.83 -9.16,49.58 -27.59,68.27z"/>
  <path class="fil1" d="M1600.56 194.31c0,-17.52 -4.77,-32.3 -14.3,-44.38 -9.6,-12.05 -24.76,-22.25 -45.45,-30.65l-25.43 -10.37c-18.52,-7.63 -27.77,-17.64 -27.77,-30.12 0,-9.01 3.54,-16.51 10.58,-22.47 7.08,-6.04 15.94,-9.06 26.6,-9.06 8.7,0 15.79,1.76 21.29,5.25 5.32,3.09 10.86,9.71 16.69,19.85l31.21 -18.51c-16.48,-28.52 -39.45,-42.76 -68.83,-42.76 -21.82,0 -40.04,6.48 -54.71,19.47 -14.6,12.87 -21.92,28.89 -21.92,48 0,28.39 17.4,49.94 52.31,64.68l24.61 10.24c6.41,2.75 11.92,5.64 16.56,8.66 4.59,3.04 8.37,6.27 11.26,9.73 2.95,3.48 5.1,7.27 6.47,11.39 1.37,4.11 2.08,8.66 2.08,13.6 0,12.33 -3.98,22.5 -11.9,30.56 -7.91,8 -17.86,12.02 -29.92,12.02 -15.14,0 -26.76,-5.49 -34.66,-16.5 -4.42,-5.73 -7.51,-16.09 -9.27,-31.05l-38.92 8.59c0.9,6.38 2.33,12.4 4.03,18.02 27.41,19.22 54.64,38.31 81.26,57.02 21.6,-0.82 39.85,-8.49 54.72,-23.04 15.66,-15.31 23.42,-34.71 23.42,-58.18z"/>
  <path class="fil1" d="M113.82 0l-113.82 249.07c10.58,7.4 21.03,14.73 31.25,21.94l26.28 -61.96 109.16 0 26.75 61.96 42.1 0 -121.72 -271.01zm-40.28 172.9l39.67 -86.69 37.79 86.69 -77.46 0z"/>
 </g>
</svg>
