<?xml version="1.0" encoding="UTF-8"?>
<!DOCTYPE svg PUBLIC "-//W3C//DTD SVG 1.1//EN" "http://www.w3.org/Graphics/SVG/1.1/DTD/svg11.dtd">
<!-- Creator: CorelDRAW 2018 -->
<svg xmlns="http://www.w3.org/2000/svg" xml:space="preserve" width="68.1984mm" height="51.947mm" version="1.1" style="shape-rendering:geometricPrecision; text-rendering:geometricPrecision; image-rendering:optimizeQuality; fill-rule:evenodd; clip-rule:evenodd"
viewBox="0 0 318.61 242.68"
 xmlns:xlink="http://www.w3.org/1999/xlink">
 <defs>
  <style type="text/css">
   <![CDATA[
    .fil0 {fill:#AFD143}
    .fil1 {fill:#7B9636}
   ]]>
  </style>
 </defs>
 <g id="Capa_x0020_1">
  <metadata id="CorelCorpID_0Corel-Layer"/>
  <path class="fil0" d="M261.19 25.49c-14.02,-25.49 -24.16,-25.49 -31.56,-25.49 -3.86,0 5.38,0 -119.87,0 -25.18,0 -33,19.19 -36.92,25.49 17.52,-25.7 51.9,-23.32 66.88,8 3.33,6.97 40.71,89.75 53.62,118.35l125.27 0c-13.42,-29.92 -53.67,-119.53 -57.42,-126.35z"/>
  <path class="fil1" d="M70.41 30.39l-70.41 142.21c30.78,21.42 67.29,46.98 100.19,70.08l65.13 -139.29c-14.71,-32.52 -26.53,-58.38 -29.02,-63.6 -14.7,-30.73 -48.09,-33.59 -65.89,-9.4z"/>
 </g>
</svg>
